<?xml version="1.0" encoding="UTF-8" standalone="no"?>
<!-- Created with Inkscape (http://www.inkscape.org/) -->

<svg
   xmlns:dc="http://purl.org/dc/elements/1.1/"
   xmlns:cc="http://creativecommons.org/ns#"
   xmlns:rdf="http://www.w3.org/1999/02/22-rdf-syntax-ns#"
   xmlns:svg="http://www.w3.org/2000/svg"
   xmlns="http://www.w3.org/2000/svg"
   xmlns:sodipodi="http://sodipodi.sourceforge.net/DTD/sodipodi-0.dtd"
   xmlns:inkscape="http://www.inkscape.org/namespaces/inkscape"
   width="1031.033"
   height="471.134"
   id="svg2"
   version="1.1"
   inkscape:version="0.48.0 r9654"
   sodipodi:docname="wiki4intranet-logo.svg"
   inkscape:export-filename="d:\d2.png"
   inkscape:export-xdpi="149.95734"
   inkscape:export-ydpi="149.95734">
  <defs
     id="defs4" />
  <sodipodi:namedview
     id="base"
     pagecolor="#ffffff"
     bordercolor="#666666"
     borderopacity="1.0"
     inkscape:pageopacity="0.0"
     inkscape:pageshadow="2"
     inkscape:zoom="0.35"
     inkscape:cx="793.3736"
     inkscape:cy="155.56699"
     inkscape:document-units="px"
     inkscape:current-layer="layer1"
     showgrid="false"
     inkscape:window-width="1081"
     inkscape:window-height="715"
     inkscape:window-x="2288"
     inkscape:window-y="157"
     inkscape:window-maximized="0"
     fit-margin-top="0"
     fit-margin-left="0"
     fit-margin-right="0"
     fit-margin-bottom="0" />
  <metadata
     id="metadata7">
    <rdf:RDF>
      <cc:Work
         rdf:about="">
        <dc:format>image/svg+xml</dc:format>
        <dc:type
           rdf:resource="http://purl.org/dc/dcmitype/StillImage" />
        <dc:title></dc:title>
      </cc:Work>
    </rdf:RDF>
  </metadata>
  <g
     inkscape:label="Layer 1"
     inkscape:groupmode="layer"
     id="layer1"
     transform="translate(418.3736,-216.79518)">
    <g
       style="font-size:764.56610107px;font-style:normal;font-variant:normal;font-weight:normal;font-stretch:normal;text-align:start;line-height:125%;letter-spacing:0px;word-spacing:0px;writing-mode:lr-tb;text-anchor:start;fill:#000000;fill-opacity:1;stroke:none;font-family:Berlin Sans FB;-inkscape-font-specification:Berlin Sans FB"
       id="text7263">
      <path
         d="m -55.876682,579.66542 c -3.69e-4,4.72885 -2.73807,6.96879 -8.213113,6.71981 -8.96011,-0.49766 -21.653089,-0.74655 -38.078975,-0.74664 -5.97349,9e-5 -9.45784,0.37342 -10.45305,1.11997 -1.99137,1.2445 -2.9869,4.72885 -2.98659,10.45305 -3.1e-4,8.71095 0.68412,21.83947 2.05328,39.38561 1.36854,17.54622 2.05296,30.67474 2.05328,39.3856 -3.2e-4,5.47541 -3.11134,8.71088 -9.33309,9.70641 -8.46228,1.49329 -23.02188,2.23993 -43.67882,2.23994 -34.84373,-10e-6 -52.26547,-2.73771 -52.26526,-8.21311 -2.1e-4,-7.21758 1.36864,-20.90608 4.10656,-41.06556 2.73748,-20.1594 4.10634,-34.96788 4.10655,-44.42548 -2.1e-4,-5.72419 -2.11571,-8.58634 -6.34649,-8.58643 -20.15965,9e-5 -50.33659,0.6223 -90.5309,1.86661 -40.19456,1.24451 -70.37149,1.86671 -90.5309,1.86662 -14.93295,9e-5 -22.3994,-15.30615 -22.3994,-45.91876 0,-24.14141 2.36437,-39.07433 7.09314,-44.7988 17.17285,-19.66149 41.81216,-49.77621 73.91802,-90.34424 40.0699,-56.24704 71.18015,-101.17023 93.33082,-134.7697 6.96851,-10.9504 17.67044,-27.25217 32.1058,-48.90535 3.9819,-5.22607 7.83957,-7.83933 11.57302,-7.83979 17.17263,4.6e-4 43.42968,6.47139 78.77122,19.41281 7.71504,2.73814 11.57271,7.34246 11.57302,13.81296 -3.1e-4,12.69341 -0.93362,31.7951 -2.79992,57.30512 -1.86693,25.51078 -2.80024,44.61247 -2.79993,57.30513 -3.1e-4,11.44889 -0.12475,31.11056 -0.37332,58.98508 -0.49807,25.13733 -0.62252,44.79901 -0.37333,58.98508 l 0,30.23919 c 6.47063,1.6e-4 15.99036,-0.4976 28.559236,-1.4933 12.568202,-0.99535 21.963495,-1.49312 28.185909,-1.49329 1.99069,1.7e-4 2.986218,2.11567 2.986586,6.3465 -3.68e-4,6.96886 0.124073,17.48412 0.373323,31.54581 0.248514,14.06197 0.372955,24.70167 0.373324,31.91915 z M -195.12627,313.48591 c -2.3e-4,-1.99069 -0.74688,-3.48398 -2.23994,-4.47988 -2.24016,3.7e-4 -5.47563,4.23136 -9.70641,12.69299 -2.48903,5.47576 -5.10229,10.82672 -7.83978,16.0529 -43.05679,57.74096 -86.11337,115.97933 -129.16986,174.7153 1.24433,2.73787 11.32404,4.10672 30.23918,4.10656 l 15.30626,0 c 41.56316,1.6e-4 72.54896,-0.62204 92.9575,-1.86662 0.24866,-30.61231 0.62198,-61.22479 1.11997,-91.83753 0.99531,-39.0742 3.1108,-68.94004 6.34649,-89.59759 1.99083,-11.94598 2.98636,-18.54135 2.98659,-19.78613 z"
         style="fill:#00ff00"
         id="path3066" />
    </g>
    <g
       style="font-size:640.88592529px;font-style:normal;font-variant:normal;font-weight:normal;font-stretch:normal;text-align:start;line-height:125%;letter-spacing:0px;word-spacing:0px;writing-mode:lr-tb;text-anchor:start;fill:#000000;fill-opacity:1;stroke:none;font-family:Comic Sans MS;-inkscape-font-specification:Comic Sans MS"
       id="text7271">
      <path
         d="m -13.205819,305.85975 c -1.5e-5,-7.71859 2.712065,-14.6031 8.1362469,-20.65356 5.42413644,-6.04959 11.8914033,-9.0746 19.4018201,-9.07504 5.006874,4.4e-4 33.275089,10.11858 84.804729,30.35446 -1.669099,-28.99798 -2.503585,-49.02564 -2.50346,-60.08306 -1.25e-4,-8.13576 2.659799,-14.81165 7.979783,-20.02768 5.31971,-5.21505 11.94345,-7.82282 19.87122,-7.82331 8.13608,4.9e-4 14.86413,2.60826 20.18415,7.82331 5.31967,5.21603 7.9796,11.89192 7.97978,20.02768 -1.8e-4,11.47466 0.62568,29.10318 1.87759,52.88561 50.06898,-7.50996 80.73635,-11.26514 92.00218,-11.26557 7.71872,4.3e-4 14.13384,2.76466 19.24536,8.29271 5.11093,5.52889 7.66654,12.25694 7.66684,20.18415 -3e-4,14.60391 -7.8236,23.57463 -23.46994,26.9122 -14.60378,3.1297 -40.36854,6.88489 -77.29435,11.26558 12.09985,11.0573 25.24301,25.24356 39.42951,42.55883 18.56707,22.94869 27.85073,38.90823 27.851,47.87868 -2.7e-4,7.51065 -2.92097,14.03007 -8.76211,19.55829 -5.84167,5.52872 -12.51755,8.29296 -20.02769,8.29271 -7.92786,2.5e-4 -15.1253,-3.75494 -21.59235,-11.26557 -12.72613,-17.10671 -33.48397,-41.61974 -62.27358,-73.53916 -42.976187,48.60915 -72.078888,72.91355 -87.30819,72.9133 -7.510443,2.5e-4 -14.134176,-2.92045 -19.871219,-8.76212 -5.73714,-5.84113 -8.605686,-12.51702 -8.605646,-20.02768 -4e-5,-7.09285 3.337904,-13.97736 10.013842,-20.65355 C 34.881425,400.3657 54.283225,382.31994 79.735157,357.49362 62.628086,352.06982 37.593504,342.99479 4.6313379,330.26849 -7.2601208,325.05334 -13.205834,316.9171 -13.205819,305.85975 z"
         style="fill:#0000ff"
         id="path3061" />
      <path
         d="m 326.01308,305.85975 c -10e-6,-7.71859 2.71207,-14.6031 8.13625,-20.65356 5.42414,-6.04959 11.8914,-9.0746 19.40182,-9.07504 5.00687,4.4e-4 33.27509,10.11858 84.80473,30.35446 -1.6691,-28.99798 -2.50359,-49.02564 -2.50346,-60.08306 -1.3e-4,-8.13576 2.6598,-14.81165 7.97978,-20.02768 5.31972,-5.21505 11.94345,-7.82282 19.87122,-7.82331 8.13609,4.9e-4 14.86413,2.60826 20.18415,7.82331 5.31968,5.21603 7.9796,11.89192 7.97978,20.02768 -1.8e-4,11.47466 0.62569,29.10318 1.8776,52.88561 50.06898,-7.50996 80.73634,-11.26514 92.00218,-11.26557 7.71872,4.3e-4 14.13383,2.76466 19.24535,8.29271 5.11093,5.52889 7.66655,12.25694 7.66685,20.18415 -3e-4,14.60391 -7.82361,23.57463 -23.46995,26.9122 -14.60378,3.1297 -40.36854,6.88489 -77.29434,11.26558 12.09984,11.0573 25.243,25.24356 39.4295,42.55883 18.56708,22.94869 27.85073,38.90823 27.851,47.87868 -2.7e-4,7.51065 -2.92097,14.03007 -8.76211,19.55829 -5.84166,5.52872 -12.51755,8.29296 -20.02769,8.29271 -7.92785,2.5e-4 -15.12529,-3.75494 -21.59234,-11.26557 -12.72613,-17.10671 -33.48397,-41.61974 -62.27359,-73.53916 -42.97618,48.60915 -72.07889,72.91355 -87.30819,72.9133 -7.51044,2.5e-4 -14.13417,-2.92045 -19.87122,-8.76212 -5.73714,-5.84113 -8.60568,-12.51702 -8.60564,-20.02768 -4e-5,-7.09285 3.3379,-13.97736 10.01384,-20.65355 13.35173,-11.26526 32.75353,-29.31102 58.20546,-54.13734 -17.10707,-5.4238 -42.14165,-14.49883 -75.10382,-27.22513 -11.89146,-5.21515 -17.83717,-13.35139 -17.83716,-24.40874 z"
         style="fill:#ff00ff"
         id="path3063" />
    </g>
  </g>
</svg>
